<svg width="500" height="500" viewBox="0 0 500 500" fill="none" xmlns="http://www.w3.org/2000/svg">
<path d="M0 28.6624C0 12.8326 12.8326 0 28.6624 0L471.338 0C487.167 0 500 12.8326 500 28.6624V471.338C500 487.167 487.167 500 471.338 500H28.6624C12.8326 500 0 487.167 0 471.338L0 28.6624Z" fill="black"/>
<path d="M336.598 316.879H288.977V182.542H336.992C350.504 182.542 362.136 185.232 371.888 190.61C381.639 195.945 389.139 203.62 394.386 213.634C399.678 223.648 402.323 235.63 402.323 249.58C402.323 263.573 399.678 275.599 394.386 285.656C389.139 295.714 381.596 303.432 371.756 308.811C361.961 314.19 350.242 316.879 336.598 316.879ZM317.379 292.544H335.417C343.813 292.544 350.876 291.057 356.604 288.083C362.377 285.066 366.706 280.409 369.592 274.112C372.522 267.771 373.987 259.594 373.987 249.58C373.987 239.653 372.522 231.541 369.592 225.244C366.706 218.947 362.398 214.312 356.67 211.338C350.941 208.365 343.879 206.878 335.483 206.878H317.379V292.544Z" fill="white"/>
<path d="M119.957 182.542H154.984L191.98 272.8H193.554L230.549 182.542H265.576V316.879H238.027V229.442H236.912L202.147 316.223H183.387L148.622 229.114H147.507V316.879H119.957V182.542Z" fill="white"/>
</svg>
